<svg width="52" height="52" viewBox="0 0 52 52" fill="none" xmlns="http://www.w3.org/2000/svg">
<path d="M46.2151 27.9717C46.4101 31.33 44.8718 34.5584 42.1201 36.53L43.7885 39.7584C44.2868 40.7334 44.3518 41.8817 43.9185 42.9C43.5068 43.9184 42.6618 44.72 41.6218 45.0667L39.9101 45.6084C39.1974 45.8485 38.428 45.8629 37.7067 45.6496C36.9855 45.4364 36.3477 45.0058 35.8801 44.4167L31.2868 39C29.3585 38.675 27.5385 37.8517 26.0001 36.6167C24.9168 36.9417 23.8335 37.115 22.7501 37.115C20.8435 37.115 18.9368 36.53 17.3335 35.4034C16.1851 35.75 15.0151 35.9017 13.8235 35.88C12.1118 35.9017 10.4218 35.555 8.84012 34.905C7.31769 34.2257 6.01682 33.1322 5.0859 31.7493C4.15498 30.3663 3.63148 28.7495 3.57512 27.0834C3.40179 25.5234 3.66179 23.9417 4.33346 22.5117C3.70512 20.8867 3.64012 19.11 4.18179 17.4634C4.98346 15.405 6.50012 13.6934 8.38512 12.61C9.64179 8.94837 13.1735 6.50003 17.0518 6.76003C20.5185 3.51003 25.8268 3.16337 29.6835 5.95837C30.5935 5.72003 31.5468 5.59003 32.5001 5.59003C35.4468 5.52503 38.2418 6.82503 40.0835 9.14337C44.5035 10.2917 47.6668 14.235 47.8401 18.8284C47.9485 21.2334 47.2985 23.595 45.9768 25.61C46.1285 26.39 46.2151 27.17 46.2151 27.9717ZM35.3818 24.9167C36.6168 25.0684 37.5918 26 37.5918 27.235C37.5918 27.8097 37.3635 28.3608 36.9572 28.7671C36.5509 29.1734 35.9998 29.4017 35.4251 29.4017H34.0601C33.3668 31.3517 32.1535 33.0634 30.5501 34.3634C31.0918 34.5584 31.6551 34.6667 32.2185 34.8184C43.3335 34.6667 42.0335 27.885 42.0335 27.7767C41.976 26.2884 41.3296 24.8839 40.2366 23.8722C39.1436 22.8604 37.6934 22.3243 36.2051 22.3817C35.6305 22.3817 35.0794 22.1534 34.6731 21.7471C34.2667 21.3408 34.0385 20.7897 34.0385 20.215C34.0385 19.6404 34.2667 19.0893 34.6731 18.683C35.0794 18.2766 35.6305 18.0484 36.2051 18.0484C38.8701 18.1134 41.4268 19.11 43.4201 20.865C43.5285 20.2367 43.5935 19.5867 43.5935 18.9367C43.4635 16.25 42.2501 13.91 37.3751 13.455C34.6668 7.0417 27.8418 10.595 27.8418 12.5884C27.7768 13.0867 28.2968 14.1484 28.3835 14.2134C28.9581 14.2134 29.5092 14.4416 29.9155 14.848C30.3219 15.2543 30.5501 15.8054 30.5501 16.38C30.5501 17.5717 29.5751 18.5467 28.3835 18.5467C27.2351 18.5034 26.1518 18.07 25.2851 17.3334C24.2451 18.005 23.0535 18.4167 21.8185 18.5467C20.5835 18.655 19.5651 17.7884 19.5001 16.5967C19.4602 16.3137 19.4786 16.0255 19.5541 15.7498C19.6296 15.4741 19.7606 15.2168 19.9392 14.9936C20.1177 14.7704 20.34 14.5861 20.5924 14.4519C20.8448 14.3177 21.1219 14.2365 21.4068 14.2134C21.7535 14.17 23.4435 13.91 23.4435 12.545C23.4435 11.115 23.9851 9.75003 24.9168 8.6667C22.9235 8.12503 20.7785 8.84003 18.6118 11.4617C14.6251 10.8334 13.0001 11.375 11.8085 15.6C9.75012 16.6184 8.66679 17.3334 8.19012 19.5C10.5301 19.0234 12.9351 19.2184 15.1668 20.0417C16.2501 20.4534 16.8568 21.6667 16.4451 22.8367C16.0335 23.9634 14.7768 24.5267 13.6501 24.115C12.0685 23.4217 10.2918 23.3784 8.66679 23.985C7.97346 24.57 7.97346 25.7834 7.97346 26.7367C7.97346 28.34 8.77512 29.835 10.1401 30.7017C11.2885 31.2867 12.5668 31.59 13.8451 31.5684C13.5201 31.005 13.2385 30.42 13.0001 29.8134C12.8296 29.2567 12.8815 28.6556 13.1451 28.1364C13.4086 27.6173 13.8632 27.2206 14.4133 27.0297C14.9633 26.8389 15.566 26.8688 16.0944 27.1132C16.6229 27.3576 17.0359 27.7973 17.2468 28.34C18.1135 30.81 20.3235 32.5 22.9235 32.7817C25.8918 32.63 28.5351 30.875 29.8351 28.1667C30.3335 25.1767 32.7385 24.9167 35.3818 24.9167ZM39.7151 41.1017L38.3718 38.285L36.8335 38.6317L39.0001 41.34L39.7151 41.1017ZM29.6401 22.4467C29.659 21.8932 29.4651 21.3535 29.0984 20.9385C28.7318 20.5234 28.2201 20.2646 27.6685 20.215C26.1301 20.1284 24.6351 20.6484 23.4868 21.6667C22.2518 22.9234 21.6018 24.6567 21.6668 26.4117C21.6668 26.9863 21.8951 27.5374 22.3014 27.9438C22.7077 28.3501 23.2588 28.5784 23.8335 28.5784C25.0685 28.5784 26.0001 27.6034 26.0001 26.4117C26.0001 25.8267 26.1518 25.2417 26.4985 24.765C26.7585 24.5484 27.0835 24.44 27.4301 24.44C28.6218 24.505 29.6401 23.6167 29.6401 22.4467Z" fill="#331A01"/>
</svg>
