<svg width="54" height="52" viewBox="0 0 54 52" fill="none" xmlns="http://www.w3.org/2000/svg">
<path d="M36 17.3333C39.5804 17.3333 43.0142 18.7029 45.5459 21.1409C48.0777 23.5788 49.5 26.8854 49.5 30.3333V45.4999H40.5V30.3333C40.5 29.184 40.0259 28.0818 39.182 27.2691C38.3381 26.4565 37.1935 25.9999 36 25.9999C34.8065 25.9999 33.6619 26.4565 32.818 27.2691C31.9741 28.0818 31.5 29.184 31.5 30.3333V45.4999H22.5V30.3333C22.5 26.8854 23.9223 23.5788 26.4541 21.1409C28.9858 18.7029 32.4196 17.3333 36 17.3333ZM4.5 19.4999H13.5V45.4999H4.5V19.4999Z" stroke="#331A01" stroke-width="4.33333" stroke-linecap="round" stroke-linejoin="round"/>
<path d="M9 12.9999C11.4853 12.9999 13.5 11.0598 13.5 8.66659C13.5 6.27335 11.4853 4.33325 9 4.33325C6.51472 4.33325 4.5 6.27335 4.5 8.66659C4.5 11.0598 6.51472 12.9999 9 12.9999Z" stroke="#331A01" stroke-width="4.33333" stroke-linecap="round" stroke-linejoin="round"/>
</svg>
