<svg width="54" height="52" viewBox="0 0 54 52" fill="none" xmlns="http://www.w3.org/2000/svg">
<path d="M9 12.9999L22.743 22.9926L22.7475 22.9969C24.273 24.0738 25.0357 24.6133 25.8727 24.8213C26.6121 25.0055 27.3879 25.0055 28.1273 24.8213C28.9643 24.6133 29.7292 24.0738 31.2592 22.9926C31.2592 22.9926 40.0725 16.4796 45 12.9999M6.75 34.2333V17.7666C6.75 15.3399 6.75 14.1266 7.2405 13.1993C7.6725 12.3824 8.35875 11.7216 9.207 11.3056C10.17 10.8333 11.43 10.8333 13.95 10.8333H40.05C42.57 10.8333 43.83 10.8333 44.7907 11.3056C45.639 11.7216 46.3275 12.3824 46.7595 13.1993C47.25 14.1244 47.25 15.3378 47.25 17.7601V34.2419C47.25 36.6643 47.25 37.8733 46.7595 38.8006C46.3272 39.6161 45.6381 40.2789 44.7907 40.6943C43.83 41.1666 42.5722 41.1666 40.0567 41.1666H13.9433C11.4277 41.1666 10.1677 41.1666 9.207 40.6943C8.36031 40.2788 7.67192 39.6159 7.2405 38.8006C6.75 37.8733 6.75 36.6599 6.75 34.2333Z" stroke="#331A01" stroke-width="4.33333" stroke-linecap="round" stroke-linejoin="round"/>
</svg>
